<svg width="30" height="29" viewBox="0 0 30 29" fill="none" xmlns="http://www.w3.org/2000/svg">
<path d="M28.2539 0.725821C28.2164 0.734707 28.1016 0.754704 27.9984 0.768034C27.4875 0.843576 26.7469 1.13686 25.9852 1.56789C23.4938 2.9743 19.575 6.37589 14.7633 11.3128C13.2422 12.8747 11.5242 14.7033 10.4063 15.9564C10.2211 16.163 10.0125 16.3963 9.94219 16.474L9.81563 16.614L9.38203 16.3985C4.125 13.8079 1.52578 13.1835 0.454689 14.2611C0.232032 14.4833 0.131251 14.681 0.04922 15.0454C-0.0117175 15.3187 -0.0117175 15.372 0.0468763 15.5342C0.126564 15.7542 0.194532 15.8342 0.590626 16.1785C1.46953 16.9406 2.81953 18.2582 3.58828 19.1002C5.47734 21.1754 7.34297 23.8127 9.64453 27.6631C9.81328 27.943 9.98906 28.2141 10.0383 28.2674C10.1461 28.383 10.2727 28.4563 10.4625 28.5118C10.5938 28.5496 10.6055 28.5496 10.7531 28.5118C10.9594 28.4607 11.0555 28.4096 11.1727 28.2941C11.2898 28.1786 11.325 28.1141 11.5031 27.6875C11.7094 27.1965 12.1266 26.2478 12.3938 25.6657C15.4969 18.8847 19.2844 13.1347 23.8242 8.31332C24.8766 7.19574 26.3672 5.75379 28.125 4.15408C29.5547 2.85432 29.8383 2.52327 29.9648 1.9967C30.007 1.81673 30.007 1.80562 29.9672 1.66343C29.8242 1.14574 29.482 0.881348 28.7813 0.745815C28.5516 0.703602 28.3758 0.694714 28.2539 0.725821Z" fill="black"/>
</svg>
